<?xml version="1.0" standalone="no"?><svg xmlns="http://www.w3.org/2000/svg" viewBox="0 0 1440 320"><path fill="#255ee9" fill-opacity="1" d="M0,224L40,240C80,256,160,288,240,261.3C320,235,400,149,480,122.7C560,96,640,128,720,122.7C800,117,880,75,960,69.3C1040,64,1120,96,1200,128C1280,160,1360,192,1400,208L1440,224L1440,320L1400,320C1360,320,1280,320,1200,320C1120,320,1040,320,960,320C880,320,800,320,720,320C640,320,560,320,480,320C400,320,320,320,240,320C160,320,80,320,40,320L0,320Z"></path></svg>