<?xml version="1.0" standalone="no"?>
<svg xmlns:xlink="http://www.w3.org/1999/xlink" id="wave" style="transform:rotate(0deg); transition: 0.3s" viewBox="0 0 1440 200" version="1.1" xmlns="http://www.w3.org/2000/svg"><defs><linearGradient id="sw-gradient-0" x1="0" x2="0" y1="1" y2="0"><stop stop-color="rgba(246, 246, 246, 1)" offset="0%"/><stop stop-color="rgba(246, 246, 246, 1)" offset="100%"/></linearGradient></defs><path style="transform:translate(0, 0px); opacity:1" fill="url(#sw-gradient-0)" d="M0,80L60,90C120,100,240,120,360,106.7C480,93,600,47,720,36.7C840,27,960,53,1080,53.3C1200,53,1320,27,1440,40C1560,53,1680,107,1800,110C1920,113,2040,67,2160,50C2280,33,2400,47,2520,53.3C2640,60,2760,60,2880,60C3000,60,3120,60,3240,63.3C3360,67,3480,73,3600,86.7C3720,100,3840,120,3960,136.7C4080,153,4200,167,4320,150C4440,133,4560,87,4680,76.7C4800,67,4920,93,5040,106.7C5160,120,5280,120,5400,126.7C5520,133,5640,147,5760,146.7C5880,147,6000,133,6120,133.3C6240,133,6360,147,6480,143.3C6600,140,6720,120,6840,113.3C6960,107,7080,113,7200,96.7C7320,80,7440,40,7560,33.3C7680,27,7800,53,7920,63.3C8040,73,8160,67,8280,83.3C8400,100,8520,140,8580,160L8640,180L8640,200L8580,200C8520,200,8400,200,8280,200C8160,200,8040,200,7920,200C7800,200,7680,200,7560,200C7440,200,7320,200,7200,200C7080,200,6960,200,6840,200C6720,200,6600,200,6480,200C6360,200,6240,200,6120,200C6000,200,5880,200,5760,200C5640,200,5520,200,5400,200C5280,200,5160,200,5040,200C4920,200,4800,200,4680,200C4560,200,4440,200,4320,200C4200,200,4080,200,3960,200C3840,200,3720,200,3600,200C3480,200,3360,200,3240,200C3120,200,3000,200,2880,200C2760,200,2640,200,2520,200C2400,200,2280,200,2160,200C2040,200,1920,200,1800,200C1680,200,1560,200,1440,200C1320,200,1200,200,1080,200C960,200,840,200,720,200C600,200,480,200,360,200C240,200,120,200,60,200L0,200Z"/></svg>